<svg width="277" height="122" viewBox="0 0 277 122" fill="none" xmlns="http://www.w3.org/2000/svg">
<path d="M273.803 34.397C271 31.5532 266.996 28.1934 263.861 25.7376C262.881 24.9685 263.058 25.7057 262.368 25.1881C261.018 24.1753 260.005 22.965 258.649 21.9883C258.199 21.6667 258.249 22.6234 257.788 22.2753C255.258 20.358 253.172 18.2098 250.723 16.1489C249.877 15.4366 249.035 14.7249 248.198 14.0136C244.627 11.0926 241.296 7.64695 235.683 5.07005C232.897 3.81188 228.979 3.2302 225.64 4.2098C222.292 5.14031 219.832 6.9397 217.782 8.74897C213.09 13.106 209.989 17.6263 206.587 22.0223C203.422 26.1894 199.969 31.5306 196.124 34.6778C195.674 35.0435 195.536 34.3726 195.422 34.4099C193.701 34.9285 194.881 35.4774 194.143 36.2676C192.654 37.8321 190.806 39.0549 189.267 39.3029C187.849 39.5659 186.268 39.0059 184.811 37.9224C183.563 36.937 185.547 36.9344 183.889 36.4916C183.77 36.452 183.706 37.2079 183.306 36.9673C182.39 36.4378 180.978 34.8402 180.371 34.2019C179.179 32.975 179.002 32.7322 177.994 31.415C176.617 29.6029 174.832 27.4551 173.638 25.2191C173.385 24.7414 174.302 25.0167 173.953 24.228C173.602 23.4432 172.407 21.5014 171.896 20.9017C171.383 20.3042 171.106 20.8385 170.938 20.7762C169.527 20.2722 169.415 17.2665 169.282 16.9493C168.166 14.3811 166.91 12.0515 165.581 9.81205C163.908 6.99316 162.139 4.34256 160.43 1.45607C158.095 -2.4853 155.688 -6.78713 153.016 -10.3845C151.768 -12.054 150.509 -13.5716 149.049 -15.0444C148.542 -15.5495 148.016 -16.0546 147.331 -16.5904C146.575 -17.0609 145.99 -17.9423 143.524 -18.0719C142.245 -18.0825 140.946 -17.268 140.419 -16.6451C139.839 -16.0095 139.586 -15.4966 139.367 -15.0558C138.954 -14.1763 138.749 -13.4973 138.528 -12.8166C138.395 -12.3964 138.271 -11.988 138.147 -11.5825C137.989 -11.0616 137.442 -11.8838 137.251 -11.2518C135.355 -4.76449 133.329 1.4922 131.503 8.0084C131.318 8.66585 132.242 8.06568 132.094 8.73972C131.893 9.64876 131.682 10.6896 131.426 11.7877C130.571 15.5079 129.253 19.7105 126.48 20.6799C125.569 23.3444 124.434 26.5568 124.049 29.1136C123.801 30.7606 125.05 29.5639 124.031 31.3016C123.801 31.6945 123.43 30.9175 123.129 31.5246C121.867 34.079 120.906 37.037 119.556 39.5217C119.279 40.0272 118.812 39.6708 118.657 39.7831C117.383 40.7367 117.803 43.3443 117.708 43.8428C116.983 47.6088 115.679 50.0385 114.367 53.2936C114.063 54.0471 113.723 52.8712 113.406 53.5841C111.764 57.3037 110.229 61.1953 109.008 64.9949C108.736 65.8463 109.65 65.3394 109.55 65.7603C109.448 66.1805 109.306 66.4935 109.141 66.7483C108.559 67.6644 107.728 67.8739 107.37 69.2342C107.275 69.5961 107.867 69.6222 107.896 69.7083C108.355 71.0684 106.742 71.379 106.605 71.6188C104.837 74.6386 105.226 77.2297 103.584 80.1421C103.388 80.4828 103.156 79.368 102.631 80.3637C100.883 83.5616 99.1747 87.0333 96.959 88.8456C97.2162 88.6262 97.8258 88.2909 98.4986 88.2757C99.1884 88.2562 99.6064 88.468 99.8145 88.5768C100.243 88.83 100.242 88.9013 100.273 88.9245C100.293 88.9592 100.176 88.8274 100.078 88.6936C99.8638 88.4075 99.615 88.0306 99.37 87.6489C98.8781 86.8805 98.3777 86.059 97.8811 85.2481C96.8834 83.6141 95.8831 81.9809 94.8806 80.3922C94.2617 79.4091 94.1834 80.3873 94.0922 80.3542C92.6332 79.7702 93.4708 78.4423 93.3439 78.0929C92.3918 75.5946 90.4725 73.7857 90.3655 71.6274C90.3552 71.3497 90.375 71.0631 90.4317 70.7659C84.0037 59.7911 78.9585 48.1564 71.8294 37.6625C71.7402 37.5283 71.2793 38.0934 71.104 37.8244C68.9866 34.5878 70.2515 34.7585 70.2005 31.9124C70.185 31.1924 67.9203 30.1821 67.7385 30.0778C67.078 29.7118 66.4977 30.7535 66.3285 30.6037C64.96 29.3514 68.0139 28.0745 66.9241 25.9901C66.8851 25.9277 66.4903 26.4822 66.3455 26.3358C65.8956 25.8849 65.8237 25.2275 65.3606 24.7936C64.2982 23.8071 62.6461 24.1061 62.5022 21.8222C62.4866 21.5317 64.3273 21.0139 63.2783 19.2031C62.8521 18.469 61.1645 15.1835 60.5705 14.3137C59.98 13.4499 59.7782 14.3619 59.7205 14.3083C57.7194 12.2135 57.9107 13.2879 56.2218 12.6118C54.5247 11.9111 57.1883 10.9516 57.2 10.3019C57.2179 9.66564 55.6747 8.14795 55.2353 7.80539C54.7959 7.46277 54.7525 8.20139 54.4277 7.86315C54.0495 7.46684 53.8282 7.16165 53.7169 6.91599C53.1755 5.72899 55.0397 5.87286 54.986 4.98737C54.8381 2.45371 52.1601 1.84335 50.988 0.0766197C50.6693 -0.404274 51.3067 -0.215513 51.1077 -0.682752C50.3083 -2.53975 49.1618 -3.30768 48.6023 -5.5991C48.5047 -5.98478 48.7274 -8.20166 47.3425 -8.82228C47.1444 -8.90881 46.9202 -8.23876 46.4066 -8.93617C45.644 -9.96915 44.4177 -11.9528 43.8844 -13.2373C43.488 -14.1903 44.8138 -13.5944 43.9406 -14.5813C43.5469 -15.0243 43.6522 -13.8482 42.9531 -14.6909C42.5674 -15.1545 41.9728 -16.0813 41.4091 -16.9591C40.9531 -17.6701 40.5354 -18.3613 40.1417 -18.7995C39.7524 -19.3004 39.1793 -19.5633 39.2286 -19.7154C39.2558 -19.8984 39.7581 -19.9344 39.6111 -20.0002C39.3962 -20.1138 38.8472 -20.243 38.3137 -20.0545C37.7889 -19.8734 37.488 -19.5712 37.2785 -19.352C36.8705 -18.8996 36.6699 -18.5407 36.4748 -18.2034C36.1554 -17.6334 35.959 -17.1513 35.9336 -17.0659C34.195 -10.0024 34.282 -3.651 33.5565 2.90222C33.3646 4.80129 33.1341 6.70738 32.8292 8.62843C32.7251 9.28886 32.0978 8.76827 32.0749 8.86822C31.5244 11.137 33.5379 9.53329 33.9571 11.2025C32.6067 10.8132 32.7474 11.7838 32.4092 13.3928C32.2464 14.1569 31.7616 13.6751 31.6989 13.7391C30.7561 14.802 31.7095 15.7259 31.8995 15.9579C32.5976 16.8213 31.5726 17.5361 32.0379 18.1225C32.4997 18.7046 33.4124 17.5969 33.2232 19.1446C32.6801 19.5211 31.5252 18.2236 31.1802 19.3742C29.8796 23.7258 29.9006 32.1232 29.552 35.703C29.2093 39.2726 28.9669 40.4105 28.8729 42.5038C28.6969 46.2868 27.9254 44.7894 27.1732 47.0472C26.4159 49.3105 28.916 48.5071 29.3737 48.9118C29.8316 49.3103 29.2626 49.5983 29.4818 50.0461C29.7009 50.4932 30.1684 49.6582 30.1366 50.6326C30.1057 51.6084 28.828 54.1043 28.2505 54.3639C27.0286 54.915 26.0362 53.564 26.0672 56.1516C26.0696 56.3003 26.7564 55.9229 26.7343 56.4876C26.6751 57.8275 26.5692 59.177 26.4403 60.5228C26.134 63.7118 25.694 66.9028 25.4276 70.049C25.3759 70.6667 26.1556 70.2474 26.1331 70.6083C25.8944 74.3606 24.9849 72.8419 23.3334 74.5964C25.1131 74.4699 25.9459 75.7778 25.4038 78.5689C25.076 80.2475 24.3944 79.8079 23.6546 80.7823C23.4335 81.0676 23.6955 82.3615 23.3046 82.499C22.0239 82.9608 20.9876 81.5991 20.8925 84.5476C20.8899 84.6778 21.5951 84.4115 21.5407 84.8516C21.1885 87.6925 19.9304 87.7756 19.1151 90.7379C18.4735 93.0723 18.2129 97.4153 17.6728 100.118C19.5725 100.522 18.5173 102.953 16.9623 103.651C16.8794 104.034 16.7805 104.452 16.6867 104.841C16.3498 106.232 15.9808 107.624 15.7749 108.958C15.6847 109.541 16.3268 109.313 16.3663 109.401C16.9896 110.757 15.522 111.16 15.3681 111.509C14.5457 113.375 14.1091 115.478 13.2961 116.244C13.3781 116.17 13.5826 116.055 13.7795 116.034C13.9862 116.008 14.1154 116.051 14.1716 116.07C14.2944 116.12 14.2559 116.12 14.2189 116.091C14.132 116.031 13.9961 115.907 13.8567 115.758C13.5875 115.472 13.3067 115.114 13.057 114.752C12.5357 113.999 12.094 113.181 11.7263 112.244C11.675 112.109 12.6533 111.163 11.24 110.844C11.1501 110.832 11.3836 112.258 10.2917 110.747C9.19701 109.231 6.65214 106.682 5.75065 104.136C5.54292 103.54 5.59462 101.602 4.1801 100.979C3.99185 100.901 3.76575 101.264 3.45349 101.176C2.45095 100.882 3.35026 99.7597 1.88084 99.6088C0.898263 99.4863 -0.188902 98.9648 -1.05889 97.8132C-1.48661 97.2527 -1.8696 96.5017 -2.12009 95.5958C-2.14475 95.5134 -1.55814 94.4209 -2.0211 93.7194C-2.74938 92.6186 -3.94273 91.145 -4.66945 89.9744C-5.02142 89.4069 -4.22628 89.4123 -4.27757 89.3075C-6.32813 85.3335 -8.50394 82.9785 -11.2431 79.0715C-11.7481 78.3531 -12.294 75.7449 -13.8032 74.6849C-15.4506 73.5318 -17.247 76.8806 -18.8283 72.8436C-19.4748 71.2057 -17.067 67.1631 -20.5344 65.6702C-23.2339 60.2857 -27.0867 56.1473 -29.5884 50.6186C-29.7016 50.3699 -29.1555 49.0329 -29.5017 48.4999C-30.0199 47.7062 -30.7551 47.5501 -31.1378 46.9957C-32.7583 44.6712 -33.7089 42.2305 -35.1964 39.9417C-35.7593 39.0734 -36.0478 39.6807 -36.7194 38.6444C-37.3973 37.5964 -37.1773 36.5353 -38.3652 35.2796C-39.2523 34.3522 -41.2128 34.0518 -42.2282 32.7278C-40.9788 31.9043 -41.62 30.9137 -42.3389 28.9765C-42.4803 28.5975 -41.8142 28.6901 -41.8581 28.4969C-42.0272 27.7041 -42.7555 27.3381 -42.8765 26.578C-42.909 26.3898 -42.4771 26.1171 -42.4787 25.9488C-42.473 24.5123 -44.4903 23.4058 -44.8402 23.215C-46.1555 22.5131 -45.9354 21.5956 -46.7006 20.9109C-46.7902 20.8304 -46.8631 20.7794 -46.9233 20.7505C-47.1415 20.6393 -47.1936 20.8162 -47.257 20.9528C-47.3012 21.0424 -47.35 21.1144 -47.4551 21.0729C-47.5302 21.0412 -47.6345 20.951 -47.7851 20.7705C-49.3666 18.8862 -50.9249 16.1481 -52.2232 14.0328C-52.7409 13.1832 -51.8069 13.414 -51.8675 13.2842C-52.7725 11.4422 -54.4555 10.0374 -53.8636 8.37535C-57.6164 8.93071 -54.2014 7.14683 -56.2917 4.9785C-56.4573 4.80818 -58.0432 5.38656 -57.7966 6.28833C-57.5668 7.16083 -56.4251 8.07355 -56.1286 9.31612C-56.0576 9.61107 -56.5336 11.8519 -56.5055 12.0821C-56.2095 14.0139 -53.9689 12.9237 -53.7982 12.944C-51.9857 13.108 -52.3805 15.7032 -52.1973 16.2311C-51.386 18.6058 -50.0162 20.1951 -49.2636 22.1669C-49.2633 22.1676 -49.263 22.1684 -49.2628 22.1691C-48.7933 23.4179 -50.1008 24.3923 -49.511 25.2675C-47.5449 28.1863 -44.9873 28.0265 -44.9419 31.8768C-44.9332 32.6959 -46.8139 33.0248 -44.2997 34.4624C-44.1472 34.5432 -42.0606 35.5079 -42.1929 36.8408C-42.2088 37.0101 -42.6528 37.2764 -42.596 37.4526C-42.2034 38.6339 -41.4337 39.1018 -40.9154 40.3268C-40.3884 41.5659 -39.825 43.0493 -38.8858 44.2454C-38.3263 44.9571 -36.8949 45.4459 -36.4654 45.6944C-35.2497 46.3751 -35.5117 48.08 -34.4124 48.2958C-33.3084 48.5113 -33.017 46.5837 -31.5149 48.0069C-32.6221 48.7741 -33.709 49.6421 -34.799 50.452C-32.4591 54.1692 -29.8233 57.6207 -27.5607 61.4013C-27.2813 61.8706 -28.19 61.775 -27.9064 62.2879C-26.7058 64.4522 -25.1339 66.0159 -23.96 68.304C-23.0547 70.0749 -22.5615 72.3257 -21.6303 74.1937C-19.6541 74.4607 -18.4815 77.3413 -17.1749 79.1761C-16.7209 79.8143 -16.3997 79.5524 -15.9939 79.9508C-14.4556 81.4842 -16.1346 81.3601 -16.011 81.9636C-15.4824 84.5401 -12.7613 83.0865 -11.2757 85.6095C-11.1979 85.74 -11.5897 88.209 -11.5358 88.4876C-11.2259 90.2388 -10.9054 88.4184 -10.2585 89.2231C-9.06243 90.7155 -8.0307 91.6231 -7.26799 93.7383C-7.03043 94.3834 -7.09206 96.2048 -5.73693 96.8685C-5.56117 96.9527 -5.15132 96.586 -5.05372 96.681C-3.70191 98.0396 -4.26071 98.9633 -4.46272 99.9742C-4.5099 100.259 -4.52871 100.554 -4.47385 100.869C-4.22942 102.33 -2.09568 103.486 -1.56488 103.685C-0.210188 104.174 -1.72907 102.733 -1.6809 102.648C-1.20521 101.49 -0.507916 102.91 0.190759 103.838C1.69526 103.089 2.50428 104.532 0.930313 104.835C0.759643 104.87 0.385807 104.001 0.190759 103.838C-0.610494 105.625 0.179995 107.243 2.57188 108.108C3.70529 108.529 3.89114 107.293 5.22079 109.87C5.82952 111.039 4.58839 111.25 4.97041 112.387C5.41438 113.691 6.33614 114.894 7.38869 116.101C7.91292 116.701 8.45874 117.287 9.02357 117.905C9.65684 118.557 9.93825 119.04 11.2387 120.15C11.7698 120.588 12.7442 121.081 13.5528 121.192C13.8921 121.254 14.1308 121.272 14.1926 121.31C14.261 121.345 14.1887 121.394 14.0714 121.441C13.8152 121.538 13.4942 121.598 13.7008 121.68C13.7949 121.715 14.1 121.78 14.7103 121.708C15.2819 121.659 16.3793 121.276 17.0918 120.639C17.1056 120.629 17.1198 120.618 17.1344 120.606C20.4175 117.361 19.6091 115.687 20.5969 113.901C20.6686 113.741 21.1788 114.338 21.3573 113.767C22.1623 111.175 22.6006 108.86 23.0891 106.449C23.3969 104.91 23.7277 103.298 24.1325 101.62C24.6369 99.5437 25.8668 95.93 26.2878 93.7463C27.0253 89.9843 27.0791 85.1801 27.9597 82.021C28.5312 79.9607 29.0823 80.5523 29.7032 79.7404C30.9062 78.1742 29.9616 74.803 29.8001 74.3447C29.7946 74.3341 29.3003 76.1042 29.15 75.0816C28.5628 74.3924 29.7932 74.3646 29.8001 74.3447C29.7005 74.048 30.218 70.4059 30.4649 69.7164C30.6021 69.3386 31.1785 69.666 31.2384 69.4664C32.0081 66.8757 32.6397 64.2518 33.1241 61.5917C33.5256 59.3869 33.8259 57.1597 34.0239 54.908C34.0242 54.8196 33.3136 54.8481 33.3229 54.6415C33.4328 51.7517 34.5341 50.0514 35.3599 47.7701C36.1843 45.4902 36.262 43.6009 35.2537 42.0579C35.6354 40.3064 35.4326 37.7001 35.2953 36.2012C35.1586 34.7003 36.5331 34.6649 36.5758 34.5398C37.9249 30.6342 37.4291 28.223 37.798 24.0521C37.9711 22.0695 38.6207 18.1751 39.0139 16.0586C39.3281 14.3777 39.1271 13.3342 39.5093 11.799C39.5606 11.592 40.1378 11.8737 40.1684 11.8122C41.0871 10.1728 39.5213 10.8248 39.2997 10.4382C38.4938 9.03806 38.0781 8.16857 38.7875 6.00894C38.9249 5.58713 40.5702 4.63935 41.2279 3.82522C41.3527 3.66526 41.4423 3.51077 41.4798 3.36538C41.7816 2.19247 40.97 2.53278 41.3069 1.31186C41.3351 1.20818 41.8012 1.27797 41.877 0.503368C42.2388 -3.09574 42.481 -7.07362 43.1227 -10.6318C43.2088 -11.1115 43.8413 -10.3743 43.9787 -11.0608C44.2781 -12.5768 44.7175 -14.5428 44.8665 -14.9984C44.8705 -15.022 44.865 -15.0055 44.7819 -14.8478C44.6674 -14.6773 44.6221 -14.4051 43.7831 -13.5086C43.3376 -13.0745 42.5762 -12.353 41.0665 -11.8604C39.5605 -11.3401 37.6405 -11.575 36.6904 -11.9817C34.7526 -12.8279 34.6529 -13.3141 34.4054 -13.5092C34.0839 -13.9038 34.2649 -13.7426 34.3823 -13.5897C34.5213 -13.4187 34.7089 -13.1665 34.9061 -12.9017C35.1357 -12.5938 35.3534 -12.3089 35.5725 -12.0242C36.0492 -11.4053 36.2477 -12.0897 36.4687 -12.024C37.8132 -11.6134 37.4074 -9.56285 37.5025 -9.34072C39.935 -3.67246 43.2755 -0.00822858 45.7591 5.90944C45.8954 6.23907 45.8531 9.28802 47.5227 9.75891C47.5585 9.7699 47.7543 9.82371 47.9968 9.9376C48.5072 10.1624 49.2288 10.6554 49.0394 11.5819C49.0184 11.6601 48.096 11.3298 48.7478 12.4212C49.4105 13.5338 49.9861 15.576 51.4514 16.8008C51.922 17.2038 53.667 17.7673 53.54 19.725C53.5275 19.8546 52.6793 23.213 54.5235 23.296C54.8268 23.3093 56.246 22.3811 56.4078 24.5538C56.4374 24.9716 55.7802 24.5287 56.0419 25.5344C56.4315 27.0585 57.7827 28.6641 57.9954 30.6917C58.0288 31.0424 57.6712 32.8293 58.9615 33.4198C59.164 33.5132 59.5076 32.9544 59.8397 33.4531C61.4218 35.8241 62.4642 38.6303 64.143 40.9991C64.7369 41.8391 65.3025 40.9551 66.0113 41.7836C66.7199 42.6119 67.9202 44.4007 68.0671 45.5797C68.2139 46.759 66.3646 46.3555 67.0333 47.8847C69.9413 54.5329 74.031 60.5135 77.5032 66.8589C78.0154 67.7942 77.1474 67.2591 77.8741 68.6633C78.9483 70.7408 80.2806 73.4612 81.701 76.2085C83.8344 80.3333 86.161 84.5555 88.1923 86.9541C90.9038 90.1398 89.063 85.2887 90.8636 87.8778C91.7197 89.1076 91.078 91.419 91.2438 91.8068C91.5081 92.4536 91.7946 93.0545 92.227 93.7591C92.4692 94.1389 92.6882 94.4984 93.2484 95.1471C93.5521 95.4621 93.856 95.9037 95.0254 96.6538C95.6703 97.0266 96.679 97.606 98.4783 97.6662C100.292 97.7425 102.1 96.8225 102.865 96.1501C105.04 94.3825 106.5 91.9376 107.828 90.0615C108.274 89.426 108.469 90.4198 108.83 89.8866C110.08 88.027 110.785 85.9845 111.695 84.2665C112.088 83.5253 112.502 83.8685 112.802 83.1508C113.535 81.4107 114.02 79.8216 114.308 77.9764C114.333 77.8115 113.298 78.5351 113.822 77.3023C114.683 75.2767 115.312 72.5939 116.741 70.4778C116.858 70.3047 117.026 70.2095 117.206 70.1262C117.678 69.9257 118.242 69.796 118.132 68.5003C118.099 68.1302 116.615 67.9653 118.467 66.7397C118.779 66.5268 121.509 64.3087 121.094 62.4862C120.984 62.0098 120.292 60.6095 120.798 59.8644C120.871 59.7639 121.281 60.4555 121.619 59.7967C122.797 57.4817 123.761 54.9451 124.949 52.5591C125.266 51.9251 125.484 53.1511 125.937 52.197C127.189 49.565 128.396 46.1303 129.264 43.412C129.583 42.4098 128.802 42.8776 128.775 42.7845C128.33 41.2833 129.819 41.0982 130.041 40.7481C131.409 38.5644 131.55 36.5437 132.564 34.4292C132.841 33.8465 133.256 34.5016 133.355 34.403C134.353 33.3642 132.942 33.8734 133.137 33.0428C133.679 30.7166 134.688 28.2833 135.63 26.083C135.978 25.2722 136.296 26.4581 136.6 25.7288C138.031 22.318 139.389 18.7117 140.483 15.1566C140.774 14.2147 141.04 13.2949 141.286 12.3819C141.512 11.5389 140.799 11.8608 140.741 11.6467C140.323 10.1874 142.09 8.86512 142.337 8.51317C143.475 6.88596 143.254 6.01372 143.889 4.43949C145.619 0.245351 147.29 -5.3544 148.454 -9.66373C148.59 -10.1414 148.756 -10.5747 148.691 -10.4514C148.632 -10.3773 148.564 -10.121 147.904 -9.42677C147.356 -8.74451 145.236 -7.53793 143.512 -7.67047C141.841 -7.74983 141.275 -8.19786 140.989 -8.33533C140.714 -8.50452 140.704 -8.5435 140.738 -8.52184C140.825 -8.47364 141.126 -8.2107 141.425 -7.91185C142.064 -7.27587 142.743 -6.50542 143.386 -5.73091C148.685 0.870332 152.773 7.10529 156.856 14.5874C157.118 15.0743 157.39 15.5851 157.656 16.0948C157.934 16.6231 156.993 16.4481 157.224 16.9093C160.262 22.8781 163.658 28.7561 167.568 34.9427C167.895 35.451 166.818 35.1275 167.329 35.9597C168.379 37.677 169.983 39.7608 171.595 41.2719C172.387 42.0132 171.893 40.5324 172.675 41.274C174.503 42.9748 176.511 44.8941 179 46.6672C180.086 47.4148 177.974 46.9477 179.492 47.8909C182.303 49.6151 186.474 51.0385 190.746 50.4337C201.439 48.123 204.926 42.1356 208.894 37.1467C209.246 36.6454 208.476 35.2991 209.495 34.5253C209.867 34.7153 210.231 35.0268 210.59 35.2748C216.108 28.9898 220.755 21.8547 225.339 17.5169C226.359 16.5828 227.348 15.9193 228.063 15.6201C228.804 15.3246 229.128 15.2842 229.796 15.4013C229.969 15.4395 229.509 16.1245 229.809 16.2005C231.676 16.5971 235.497 20.1321 239.679 23.2462C240.005 23.4855 240.34 23.7268 240.677 23.9628C241.146 24.2924 241.86 23.0923 242.956 24.3829C243.147 24.6104 244.888 26.4599 245.171 27.1227C245.206 27.2154 244.436 27.3737 245.022 27.9378C248.449 31.2191 252.21 34.4684 255.964 37.3756C256.57 37.8434 256.429 36.7937 256.865 37.1227C259.955 39.4618 262.701 42.6726 265.837 44.7038C267.938 46.0613 268.056 44.5785 269.803 44.6096C270.05 44.6143 271.195 45.6255 271.707 45.1824C272.997 44.071 273.7 42.2053 275.14 41.0797C275.449 40.8363 276.677 42.5247 276.416 41.0154C276.396 40.912 275.511 39.6818 275.457 39.2005C275.417 38.8666 276.217 38.6709 276.024 38.1131C275.831 37.5552 275.024 37.5943 274.612 36.7695C274.204 35.9425 275.007 35.6229 273.803 34.397ZM34.6737 29.4558C34.1874 28.0277 36.587 28.1135 35.8431 29.506C35.8043 29.5732 34.6972 29.5294 34.6737 29.4558ZM-28.2987 56.6521C-26.4688 57.61 -27.1517 59.459 -28.503 58.8203C-29.854 58.1802 -28.8547 56.3595 -28.2987 56.6521ZM-37.2809 40.5603C-35.4867 41.8957 -38.2068 43.9506 -38.7862 41.6923C-38.8206 41.562 -37.3852 40.4824 -37.2809 40.5603ZM265.539 40.2662C265.574 40.2552 266.406 40.9735 266.404 41.0143C266.323 41.9697 264.661 40.5335 265.539 40.2662ZM-46.0857 24.5275C-45.3492 24.8558 -44.8428 26.7072 -45.745 26.3224C-46.4609 26.0295 -46.998 24.1258 -46.0857 24.5275ZM49.9302 0.575084C49.9721 0.577784 50.3741 1.26434 50.1859 1.33982C49.5937 1.60867 49.2308 0.537886 49.9302 0.575084ZM-61.8403 -2.26611C-59.5422 1.7728 -55.7068 2.71707 -58.4196 -1.42417C-58.9055 -2.1801 -58.2609 0.695561 -59.0348 -0.171946C-60.4732 -1.80751 -59.5509 -3.80002 -61.3089 -5.30178C-61.6381 -5.57881 -61.9957 -2.5053 -61.8399 -2.25685C-61.84 -2.25994 -61.8402 -2.26302 -61.8403 -2.26611ZM31.9136 28.3359C31.8854 28.306 31.985 27.2208 32.0193 27.1976C32.8437 26.7013 32.6433 28.8895 31.9136 28.3359ZM72.6008 40.5495C72.6887 40.5721 73.9157 42.7821 73.8994 42.8851C73.41 44.6298 70.9245 40.1602 72.6008 40.5495ZM17.7129 100.172C16.6888 101.144 16.2615 102.494 16.9627 103.646C17.1991 102.49 17.4768 101.336 17.7129 100.172Z" fill="#ECF26F"/>
</svg>
