<svg width="235" height="201" viewBox="0 0 235 201" fill="none" xmlns="http://www.w3.org/2000/svg">
<g clip-path="url(#clip0_663_30309)">
<path d="M43.5292 86.8542C43.6129 88.9004 44.1952 90.6315 45.7561 92.1031C47.4263 93.6161 49.6135 94.4433 51.7894 94.0071C53.1386 93.7619 54.6157 93.1874 55.698 92.3376C59.3693 90.9562 61.9727 87.1563 61.1731 83.0767C60.9246 82.1014 60.676 81.126 60.1236 80.2876C60.0085 79.6145 59.6321 78.9686 59.3225 78.4737C59.0797 78.1301 58.7942 77.8962 58.5087 77.6623C57.604 76.4389 56.286 75.3109 54.7124 74.8416C51.0609 73.5866 46.5203 75.2689 44.3913 78.4927C42.7793 81.0307 42.437 84.1748 43.5292 86.8542Z" fill="#8852DE"/>
<path d="M20.6863 66.2815C22.2073 67.8604 23.8993 69.001 26.1096 69.4574C27.6197 69.7755 28.9534 69.9013 30.458 69.5889C33.9911 68.9103 37.0935 66.4355 38.3088 62.9979C38.5225 62.4501 38.5839 61.9706 38.6453 61.491C38.7735 61.1623 38.7922 60.7924 38.8108 60.4224C39.019 59.2442 38.7889 57.9007 38.3637 56.735C37.9813 55.4597 37.4465 54.2527 36.6071 53.1821C35.634 51.8098 34.1611 50.7518 32.4746 50.2416C31.9267 50.035 31.4456 49.9792 30.8549 49.8822C30.3738 49.8265 29.9355 49.6612 29.4544 49.6055C27.6396 49.4239 25.7208 49.8315 24.0452 50.5821C22.3696 51.3327 20.8946 52.536 19.8152 54.0141C17.6618 57.6007 17.7538 63.165 20.6863 66.2815Z" fill="#8852DE"/>
<path d="M58.4934 54.5737C56.5598 60.0974 59.1328 65.4279 64.408 67.7692C66.2399 68.5771 68.1821 69.4261 69.971 70.3428C72.3113 71.4651 75.2117 71.1726 77.6657 70.0892C78.15 70.1448 78.567 70.0505 79.1375 69.8885C81.4864 69.3904 83.5665 68.2925 84.9796 66.3215C86.3496 64.4594 87.0096 61.8329 86.6391 59.5716C86.11 56.7516 84.4883 54.7732 82.2342 53.4333C82.0998 53.1334 81.8551 52.7924 81.6776 52.6013C78.6737 48.3591 73.0969 46.7796 68.3371 48.2522C66.8412 48.1941 65.3695 48.3948 63.8357 49.0719C61.7315 49.911 59.3309 52.1383 58.4934 54.5737Z" fill="#8852DE"/>
<path d="M26.5669 16.9993C26.1575 19.9913 26.5991 23.0533 27.8677 25.9244C29.8707 30.4576 33.8983 34.6234 38.4929 36.3602C42.2124 37.7662 45.9632 37.7995 49.3134 36.9262C53.0344 36.0671 56.5495 34.1232 58.9834 30.7637C59.5859 29.8587 60.1884 28.9536 60.6814 28.0071C62.1421 25.5384 63.0318 22.6021 63.1129 19.486C63.5696 9.58906 57.65 -1.33369 46.5681 -1.87259C35.4862 -2.41148 26.2948 6.07167 26.5669 16.9993Z" fill="#8852DE"/>
<path d="M-7.65345 36.4381C-7.71477 36.9179 -7.7761 37.3976 -7.83742 37.8773C-9.05414 43.5785 -3.7203 49.2366 2.21019 48.2054C4.08551 47.9072 5.93668 47.3484 7.72106 46.6387C8.28738 46.4752 8.89646 46.2021 9.39595 45.8877C10.809 45.1636 12.3075 44.2203 13.0818 42.8782C13.6427 42.084 13.9844 41.2072 14.4356 40.3717C15.015 39.2074 15.1081 37.3567 14.8352 36.1223C14.5142 34.3668 13.6268 32.7749 12.3495 31.5387C11.7777 31.0715 11.2059 30.6043 10.7009 30.2881C10.3482 29.9036 10.0381 29.4095 9.64268 29.1345C8.07946 27.6647 6.01675 26.5094 3.78869 26.4231C1.29882 26.3638 -1.5142 26.8111 -3.46394 28.5899C-4.24383 29.3014 -5.06642 30.1225 -5.77949 30.9849C-6.87699 32.8338 -7.2132 34.3413 -7.65345 36.4381Z" fill="#8852DE"/>
<path d="M85.6443 33.4052C85.6019 33.5153 85.711 33.5567 85.6686 33.6668L85.6262 33.7769C85.299 35.9246 85.6019 38.0591 87.2255 39.6851C87.9525 40.7184 89.0247 41.504 90.2242 41.9594C94.4104 43.4221 98.9297 41.0987 100.499 37.0242C101.516 34.3813 101.359 31.5447 100.444 29.0518C100.111 28.2942 99.7354 27.6468 99.2083 27.0681C99.1417 26.9166 99.1417 26.9166 99.0751 26.7651C98.4329 25.5116 97.5545 24.547 96.3308 23.8301C93.6652 22.3134 90.1091 23.1093 88.2433 25.6827C87.7283 26.3707 87.28 27.2103 86.8317 28.0498C85.9109 29.4674 85.4081 31.4222 85.6443 33.4052Z" fill="#8852DE"/>
<path d="M88.9609 98.924C87.9154 101.3 87.9384 103.829 88.8299 106.056C89.06 107.403 89.5512 108.723 90.5647 109.988C91.9301 111.639 94.3825 113.072 96.5622 113.267C97.1937 113.254 97.8252 113.241 98.3474 113.187C100.418 113.341 102.373 112.821 104.323 111.669C105.58 111.011 106.552 110.119 107.391 108.925C107.95 108.129 108.399 107.291 108.74 106.412C109.038 105.643 109.226 104.832 109.306 103.98L109.348 103.871C109.914 101.439 110.261 98.9246 109.042 96.5731C108.065 94.5654 106.548 92.9831 104.6 91.8674C100.156 89.4292 94.5693 90.5899 91.4281 94.8184C90.9542 95.3949 90.5896 96.0128 90.3768 96.5622C89.9029 97.1388 89.4957 97.8665 89.1978 98.6357C89.0885 98.5943 89.0035 98.8141 88.9609 98.924Z" fill="#8852DE"/>
<path d="M107.598 66.1901C107.622 66.4504 107.579 66.5599 107.603 66.8202C108.064 69.5055 110.035 72.5089 112.795 73.1717L112.905 73.213C114.855 73.6963 116.518 73.9461 118.414 73.2787C120.42 72.6526 121.548 71.6961 122.891 70.1922C124.428 68.5106 124.974 65.8272 124.933 63.6768C124.869 61.2661 124.262 59.279 122.868 57.3725C120.744 54.4373 117.43 52.9379 113.908 52.6159C111.129 52.3228 108.276 53.5088 106.634 55.7791C104.564 59.1443 104.907 63.4182 107.598 66.1901Z" fill="#8852DE"/>
<path d="M4.52137 85.2858C4.35099 85.7251 4.33259 86.0959 4.16221 86.5352C4.05858 87.1256 4.06428 87.7574 4.11258 88.2794C4.06999 88.3892 3.98477 88.6089 4.05151 88.76C3.80736 90.6826 4.30442 92.6336 5.29985 94.2695C5.63357 95.0254 6.05248 95.5617 6.73265 96.0708C7.26088 96.6485 7.83167 97.1163 8.59703 97.4058C9.2772 97.915 10.0426 98.2045 10.7838 98.233C11.8771 98.6466 13.0983 98.7308 14.3379 98.4442C14.7511 98.3486 15.1643 98.2531 15.5775 98.1576C16.4039 97.9665 17.2728 97.6655 18.0325 97.3232C19.2479 96.7756 19.9835 96.1724 20.719 95.5691C20.719 95.5691 20.719 95.5691 20.6764 95.6789C20.719 95.5691 20.8283 95.6104 20.8709 95.5006C21.497 94.856 22.1232 94.2114 22.7494 93.5667C23.6979 92.4144 24.1664 91.2064 24.4589 89.8059C24.7996 88.9273 24.8791 88.0759 24.7399 87.1417C24.7711 85.7683 24.4984 84.5317 23.9645 83.3223C23.1636 81.5082 21.9736 80.0506 20.3279 78.7983C17.5405 76.6105 13.5064 76.3437 10.3159 77.7813C8.64466 78.5343 7.36816 79.5625 6.29191 81.0443C5.45277 82.238 4.78967 83.6243 4.52137 85.2858Z" fill="#8852DE"/>
<path d="M-13.9188 0.672232C-13.8221 1.71734 -13.5311 2.58393 -13.0885 3.38195C-11.9363 5.58329 -10.4624 7.27626 -8.18733 8.51642C-4.14075 10.6799 1.18716 10.1774 4.64092 7.07399C8.40982 5.09842 11.4267 1.82946 12.9998 -2.23868C14.1476 -5.20732 14.07 -8.89241 12.8028 -11.7676C12.3359 -12.8269 11.6081 -13.859 10.8378 -14.7812C10.1767 -15.6619 9.25475 -16.5155 8.39941 -17.2178C4.67461 -19.8896 -0.0522004 -20.2939 -4.25793 -18.4838C-7.70505 -17.0166 -9.81166 -14.1591 -11.9182 -11.3016C-14.6742 -8.05986 -15.3919 -3.28948 -13.9188 0.672232Z" fill="#8852DE"/>
<path d="M124.87 102.472C125.058 103.929 125.549 105.25 126.453 106.474C127.096 107.726 128.042 108.841 129.334 109.708C130.166 110.149 131.106 110.632 131.937 111.073C133.794 111.776 135.712 111.998 137.733 111.63C137.842 111.671 137.842 111.671 137.994 111.602C138.971 111.342 139.839 111.041 140.817 110.781C141.66 110.218 142.462 109.766 143.306 109.203C143.973 108.448 144.751 107.734 145.376 107.088C146.062 105.962 146.791 104.725 147.259 103.516C147.386 103.186 147.514 102.857 147.641 102.527C147.854 101.977 148 101.276 148.103 100.685C148.486 99.6958 148.608 98.7336 148.359 97.7572C148.311 97.2347 148.305 96.6023 148.257 96.0798C147.978 94.2098 147.178 92.3941 145.989 90.9354C145.285 90.1647 144.582 89.3939 143.793 88.8431L143.684 88.8017C143.113 88.3336 142.349 88.0439 141.736 87.6858C141.627 87.6444 141.408 87.5616 141.342 87.4103C140.425 87.1892 139.509 86.9682 138.592 86.7471C138.441 86.8156 138.222 86.7329 138.071 86.8014C137.439 86.8144 136.808 86.8274 136.286 86.8818C136.177 86.8404 136.025 86.909 135.916 86.8676C135.394 86.9219 134.939 87.1276 134.417 87.182C134.265 87.2505 134.156 87.2091 134.113 87.3191C134.004 87.2777 133.962 87.3876 133.852 87.3462C131.704 88.0448 129.822 89.3485 128.577 91.2717C128.255 91.78 127.933 92.2883 127.569 92.9065C127.526 93.0164 127.332 93.1949 127.289 93.3048C125.225 96.0519 124.319 99.364 124.87 102.472Z" fill="#8852DE"/>
<path d="M52.1922 109.223C52.0263 112.56 52.4922 115.885 54.4772 118.525C54.8534 119.172 55.2297 119.818 55.6486 120.354C56.3954 121.014 57.0996 121.785 57.8465 122.445C58.7878 122.927 59.7291 123.409 60.6278 124.001C62.1158 124.69 63.6648 124.898 65.2747 124.626C66.3438 124.779 67.322 124.519 68.2334 124.108C69.2784 124 70.1898 123.589 70.9678 122.876C71.8793 122.465 72.7666 121.793 73.3259 120.997C74.1039 120.284 74.8151 119.42 75.3077 118.472C76.0857 117.759 76.645 116.963 77.0283 115.975C77.5024 115.399 77.758 114.74 78.0135 114.081C78.33 112.941 78.5372 111.76 78.8538 110.62C79.1646 108.849 78.9103 107.241 78.2856 105.619C78.0796 104.534 77.6125 103.476 76.9508 102.596C76.1741 101.042 75.051 99.7356 73.6482 98.8271C71.6321 97.5605 69.4456 96.7332 67.0888 96.3452C65.3212 96.0543 63.7113 96.3267 62.0829 96.97C60.4303 97.3523 58.9112 98.037 57.5923 99.1752C54.4989 101.657 52.4191 105.404 52.1922 109.223Z" fill="#8852DE"/>
<path d="M154.368 141.89C152.824 140.502 151.154 139.69 148.976 139.756C146.691 139.869 144.535 140.834 143.304 142.685C142.522 143.815 141.888 145.268 141.735 146.637C140.126 150.216 141.031 154.75 144.56 157.069C145.444 157.583 146.328 158.097 147.33 158.298C147.9 158.693 148.636 158.883 149.215 159.014C149.637 159.084 150.01 159.048 150.383 159.011C151.914 159.235 153.669 159.099 155.129 158.315C158.637 156.615 160.646 152.206 159.821 148.417C159.126 145.478 157.089 143.012 154.368 141.89Z" fill="#8852DE"/>
<path d="M184.934 142.931C182.703 142.889 180.671 143.278 178.768 144.518C177.464 145.36 176.425 146.214 175.584 147.498C173.569 150.475 173.168 154.419 174.809 157.71C175.056 158.248 175.362 158.631 175.667 159.014C175.816 159.337 176.072 159.612 176.328 159.887C177.039 160.867 178.181 161.655 179.332 162.179C180.532 162.811 181.792 163.287 183.168 163.451C184.858 163.734 186.675 163.442 188.245 162.611C188.785 162.37 189.167 162.069 189.657 161.72C190.039 161.42 190.471 161.227 190.853 160.926C192.275 159.772 193.341 158.127 193.984 156.412C194.627 154.697 194.799 152.803 194.489 150.994C193.406 146.935 189.287 143.063 184.934 142.931Z" fill="#8852DE"/>
<path d="M164.53 175.467C161.828 170.201 156.076 168.226 150.614 170.259C148.721 170.969 146.72 171.726 144.777 172.329C142.292 173.171 140.454 175.408 139.514 177.893C139.13 178.192 138.904 178.551 138.62 179.065C137.324 181.062 136.66 183.295 137.112 185.68C137.514 187.958 138.983 190.28 140.913 191.623C143.366 193.25 145.973 193.517 148.557 192.888C148.874 193.007 149.298 193.077 149.565 193.088C154.82 193.991 159.934 191.208 162.219 186.833C163.321 185.828 164.216 184.656 164.803 183.103C165.674 181.036 165.733 177.778 164.53 175.467Z" fill="#8852DE"/>
<path d="M212.984 183.042C211.103 180.636 208.566 178.783 205.58 177.65C200.865 175.863 194.977 175.769 190.449 177.796C186.783 179.437 184.092 182.07 182.344 185.062C180.322 188.306 179.233 192.172 179.941 196.273C180.17 197.34 180.399 198.407 180.735 199.426C181.489 202.207 182.988 204.915 185.192 207.176C192.052 214.501 204.191 218.034 212.462 210.564C220.733 203.093 221.11 190.58 212.984 183.042Z" fill="#8852DE"/>
<path d="M226.469 146.581C226.163 146.198 225.858 145.815 225.552 145.433C222.267 140.539 214.359 140.308 210.896 145.232C209.781 146.769 208.872 148.473 208.121 150.237C207.838 150.753 207.604 151.377 207.478 151.953C207.001 153.464 206.623 155.191 207.05 156.689C207.229 157.647 207.625 158.509 207.912 159.419C208.348 160.653 209.629 162.028 210.722 162.708C212.227 163.723 214.017 164.221 215.824 164.193C216.57 164.119 217.316 164.045 217.905 163.911C218.436 163.934 219.016 164.064 219.497 163.979C221.677 163.913 223.984 163.272 225.629 161.757C227.442 160.039 229.115 157.733 229.205 155.096C229.241 154.041 229.228 152.878 229.107 151.764C228.541 149.68 227.682 148.375 226.469 146.581Z" fill="#8852DE"/>
<path d="M112.31 161.783C111.333 159.36 109.485 157.587 107.237 156.644C106.098 155.855 104.792 155.269 103.154 155.093C100.987 154.894 98.204 155.621 96.5114 157.029C96.0714 157.486 95.6314 157.944 95.2991 158.353C93.7143 159.713 92.6992 161.468 92.146 163.666C91.728 165.024 91.6824 166.344 91.9509 167.784C92.1299 168.744 92.4166 169.656 92.8111 170.519C93.1562 171.275 93.6091 171.982 94.1697 172.641L94.219 172.749C95.5776 174.871 97.1517 176.896 99.7226 177.694C101.872 178.422 104.098 178.465 106.292 177.871C111.22 176.443 114.355 171.658 113.528 166.438C113.447 165.694 113.259 164.998 113.013 164.458C112.932 163.714 112.695 162.91 112.35 162.155C112.458 162.106 112.359 161.891 112.31 161.783Z" fill="#8852DE"/>
<path d="M119.465 199.147C119.258 198.98 119.208 198.872 119.001 198.705C116.716 197.13 113.126 196.397 110.683 197.877L110.575 197.926C108.838 198.961 107.475 199.958 106.615 201.77C105.647 203.629 105.544 205.102 105.688 207.114C105.822 209.39 107.392 211.673 108.989 213.166C110.793 214.826 112.674 215.803 115.054 216.168C118.703 216.745 122.149 215.466 124.885 213.206C127.072 211.451 128.233 208.597 127.742 205.832C126.758 201.989 123.397 199.208 119.465 199.147Z" fill="#8852DE"/>
<path d="M228.121 104.029C227.155 102.773 225.964 101.877 224.548 101.341C223.249 100.493 221.883 100.065 220.292 99.9974C218.759 99.7736 217.267 99.9214 215.707 100.489C214.156 100.793 212.803 101.528 211.598 102.586C210.011 103.944 208.896 105.482 208.194 107.354C207.533 109.597 207.213 111.169 207.554 113.613C208.313 117.819 211.171 121.216 215.153 122.812C216.618 123.456 217.994 123.62 219.486 123.472C221.077 123.54 222.52 123.284 223.981 122.501C224.903 121.959 225.716 121.466 226.638 120.924C227.892 119.973 228.783 118.796 229.358 117.5C229.916 116.731 230.267 115.795 230.411 114.692C230.829 113.336 230.933 111.862 230.614 110.316C230.623 110.052 230.574 109.944 230.583 109.681C230.39 107.559 229.5 105.62 228.121 104.029Z" fill="#8852DE"/>
<path d="M185.213 117.475C185.015 117.043 184.759 116.768 184.562 116.336C184.208 115.845 183.745 115.402 183.333 115.067C183.283 114.959 183.185 114.743 183.028 114.684C181.807 113.151 180.039 112.123 178.144 111.671C177.359 111.373 176.672 111.291 175.819 111.413C175.024 111.379 174.279 111.453 173.525 111.79C172.672 111.912 171.917 112.25 171.369 112.756C170.292 113.238 169.362 114.044 168.688 115.126C168.463 115.487 168.239 115.847 168.014 116.208C167.565 116.929 167.165 117.758 166.873 118.539C166.405 119.788 166.32 120.736 166.234 121.684C166.234 121.684 166.234 121.684 166.185 121.577C166.234 121.684 166.126 121.733 166.176 121.841C166.198 122.741 166.22 123.641 166.242 124.541C166.403 126.028 166.945 127.215 167.753 128.413C168.148 129.276 168.708 129.935 169.485 130.497C170.459 131.491 171.549 132.172 172.806 132.649C174.691 133.365 176.595 133.552 178.673 133.271C182.243 132.843 185.306 130.171 186.533 126.892C187.176 125.174 187.338 123.542 187.029 121.73C186.76 120.291 186.227 118.84 185.213 117.475Z" fill="#8852DE"/>
<path d="M254.235 169.77C253.41 169.099 252.576 168.693 251.684 168.443C249.271 167.703 246.997 167.552 244.48 168.29C240.034 169.633 236.605 173.772 236.391 178.421C235.137 182.495 235.354 186.95 237.177 190.945C238.508 193.86 241.229 196.412 244.211 197.547C245.31 197.964 246.574 198.178 247.79 198.283C248.898 198.437 250.172 198.386 251.289 198.275C255.873 197.521 259.531 194.45 261.216 190.183C262.608 186.697 262.041 183.18 261.473 179.662C261.09 175.411 258.15 171.527 254.235 169.77Z" fill="#8852DE"/>
<path d="M82.2927 182.559C81.1045 181.661 79.7993 181.076 78.2697 180.851C76.9062 180.422 75.4259 180.305 73.878 180.609C72.9672 180.887 71.9486 181.213 71.0378 181.492C69.207 182.312 67.681 183.516 66.5091 185.212C66.4014 185.261 66.4014 185.261 66.343 185.417C65.8355 186.295 65.4358 187.124 64.9283 188.002C64.7348 188.999 64.4921 189.888 64.2986 190.885C64.3697 191.894 64.3332 192.951 64.3551 193.851C64.6818 195.135 65.0579 196.527 65.6 197.715C65.7478 198.039 65.8957 198.363 66.0435 198.687C66.2899 199.226 66.6933 199.826 67.0474 200.318C67.491 201.289 68.1006 202.056 68.9841 202.571C69.3966 202.906 69.8584 203.349 70.2709 203.685C71.8224 204.81 73.7062 205.526 75.6082 205.714C76.6669 205.76 77.7255 205.805 78.6857 205.635L78.7934 205.587C79.5381 205.513 80.292 205.175 80.9874 204.994C81.0951 204.945 81.3105 204.849 81.4675 204.908C82.2798 204.414 83.0921 203.92 83.9043 203.426C83.9627 203.27 84.1781 203.173 84.2365 203.017C84.6764 202.56 85.1164 202.102 85.4486 201.693C85.5563 201.645 85.6147 201.489 85.7224 201.44C86.0546 201.031 86.2298 200.563 86.562 200.154C86.6204 199.997 86.7281 199.949 86.6789 199.841C86.7866 199.793 86.7373 199.685 86.8449 199.637C87.869 197.617 88.2651 195.358 87.7595 193.114C87.6208 192.526 87.4821 191.938 87.2941 191.242C87.2448 191.134 87.2539 190.87 87.2046 190.762C86.6863 187.352 84.934 184.366 82.2927 182.559Z" fill="#8852DE"/>
<path d="M133.108 130.089C130.807 127.611 128.065 125.589 124.739 125.129C124.003 124.938 123.266 124.748 122.58 124.666C121.57 124.728 120.51 124.683 119.5 124.745C118.481 125.072 117.462 125.398 116.393 125.617C114.835 126.184 113.582 127.136 112.635 128.47C111.763 129.12 111.256 129.998 110.905 130.935C110.241 131.752 109.89 132.689 109.854 133.745C109.503 134.682 109.359 135.787 109.538 136.747C109.502 137.803 109.622 138.919 109.958 139.938C109.922 140.994 110.101 141.954 110.545 142.925C110.626 143.669 110.922 144.316 111.218 144.964C111.819 145.994 112.527 146.977 113.128 148.008C114.192 149.481 115.538 150.438 117.158 151.142C118.092 151.764 119.191 152.182 120.3 152.335C121.979 152.883 123.725 153.011 125.381 152.659C127.734 152.125 129.889 151.16 131.847 149.763C133.315 148.716 134.263 147.381 134.955 145.771C135.854 144.329 136.438 142.767 136.551 141.027C136.952 137.077 135.715 132.952 133.108 130.089Z" fill="#8852DE"/>
<path d="M-2.52885 200.73C-4.40979 198.323 -6.94665 196.47 -9.9329 195.338C-14.648 193.55 -20.536 193.456 -25.064 195.483C-28.7294 197.124 -31.4206 199.758 -33.1688 202.749C-35.1911 205.993 -36.2794 209.859 -35.5713 213.96C-35.3426 215.027 -35.114 216.094 -34.7775 217.113C-34.024 219.894 -32.525 222.602 -30.3206 224.864C-23.4607 232.188 -11.3221 235.721 -3.051 228.251C5.22014 220.781 5.59751 208.267 -2.52885 200.73Z" fill="#8852DE"/>
<path d="M10.9561 164.268C10.6505 163.885 10.3449 163.502 10.0393 163.12C6.75392 158.226 -1.15399 157.995 -4.6167 162.919C-5.73195 164.456 -6.6404 166.16 -7.39154 167.924C-7.67488 168.441 -7.90882 169.064 -8.03482 169.64C-8.51168 171.152 -8.88968 172.879 -8.4629 174.376C-8.28327 175.334 -7.88781 176.196 -7.60027 177.106C-7.16444 178.34 -5.88345 179.715 -4.79114 180.395C-3.28529 181.41 -1.49608 181.909 0.311202 181.88C1.0575 181.806 1.80375 181.732 2.39272 181.599C2.92321 181.621 3.50314 181.751 3.9842 181.666C6.16463 181.601 8.47106 180.959 10.1168 179.445C11.9289 177.726 13.6018 175.42 13.6923 172.783C13.7285 171.728 13.7152 170.565 13.5941 169.451C13.028 167.367 12.1696 166.063 10.9561 164.268Z" fill="#8852DE"/>
<path d="M12.6082 121.716C11.6421 120.46 10.4511 119.564 9.03538 119.028C7.73655 118.18 6.37015 117.752 4.77897 117.685C3.24626 117.461 1.75397 117.609 0.194111 118.176C-1.3567 118.48 -2.70986 119.215 -3.91474 120.273C-5.50176 121.632 -6.61684 123.169 -7.31849 125.041C-7.97976 127.284 -8.29928 128.856 -7.95824 131.3C-7.19959 135.506 -4.34165 138.903 -0.359545 140.499C1.10564 141.143 2.48108 141.307 3.97342 141.159C5.5646 141.227 7.00751 140.971 8.46854 140.188C9.39012 139.646 10.2038 139.153 11.1254 138.611C12.3797 137.661 13.27 136.483 13.8456 135.187C14.4032 134.419 14.754 133.483 14.8981 132.379C15.3164 131.024 15.4202 129.549 15.1014 128.003C15.1104 127.739 15.061 127.632 15.07 127.368C14.8772 125.246 13.9877 123.307 12.6082 121.716Z" fill="#8852DE"/>
<path d="M38.7226 187.457C37.8977 186.787 37.0637 186.38 36.1712 186.13C33.7584 185.391 31.4844 185.239 28.9675 185.978C24.5215 187.321 21.0919 191.46 20.8782 196.108C19.6242 200.182 19.8413 204.637 21.6644 208.632C22.9948 211.547 25.716 214.099 28.6982 215.234C29.7969 215.652 31.0616 215.865 32.2772 215.97C33.385 216.124 34.6589 216.073 35.7758 215.963C40.3605 215.208 44.0181 212.137 45.7028 207.87C47.0955 204.384 46.5281 200.867 45.9606 197.349C45.5775 193.099 42.6374 189.214 38.7226 187.457Z" fill="#8852DE"/>
<path d="M50.4529 140.131C48.9729 138.326 46.8944 136.918 44.798 136.038C41.5497 134.633 37.7075 135.051 34.5265 136.342C30.8056 137.873 27.8269 141.02 26.3148 144.809C25.4957 146.991 25.023 149.927 25.4232 152.214C25.9628 155.087 27.2178 157.252 28.8957 159.487C30.5737 161.722 34.1773 163.617 36.9892 163.789C38.0015 163.726 39.0632 163.771 40.0755 163.708C41.7852 163.464 43.2385 162.945 44.6018 161.947C45.5242 161.405 46.3476 160.649 47.1711 159.892C48.7413 159.061 50.2711 157.859 51.2791 156.371C51.6705 155.807 52.0125 155.135 52.3545 154.463C52.413 154.307 52.521 154.259 52.4716 154.152C52.6965 153.792 52.7641 153.372 52.9891 153.012C52.9306 153.168 52.8226 153.216 52.872 153.324C53.7406 151.249 54.0873 148.889 53.5296 146.542C53.0305 144.04 52.2388 142.318 50.4529 140.131Z" fill="#8852DE"/>
</g>
<defs>
<clipPath id="clip0_663_30309">
<rect width="234.5" height="201" rx="18" fill="white"/>
</clipPath>
</defs>
</svg>
