<svg width="897" height="201" viewBox="0 0 897 201" fill="none" xmlns="http://www.w3.org/2000/svg">
<g clip-path="url(#clip0_660_2652)">
<path d="M289.155 89.4954C287.932 87.8055 286.461 86.6584 284.299 86.2724C282.021 85.9116 279.687 86.4186 278.073 87.9913C277.058 88.945 276.119 90.2489 275.672 91.5681C273.312 94.7695 273.225 99.4327 276.203 102.452C276.964 103.143 277.725 103.833 278.668 104.239C279.145 104.747 279.83 105.087 280.373 105.335C280.774 105.493 281.149 105.533 281.525 105.574C282.986 106.112 284.747 106.341 286.355 105.869C290.182 104.916 293.115 100.979 293.121 97.0669C293.071 94.0224 291.595 91.1653 289.155 89.4954Z" fill="#ECF26F"/>
<path d="M318.867 95.7525C316.68 95.2497 314.595 95.2138 312.453 96.0456C310.987 96.6085 309.779 97.2375 308.673 98.3333C306.044 100.86 304.795 104.675 305.697 108.268C305.824 108.852 306.042 109.293 306.26 109.735C306.336 110.085 306.529 110.409 306.722 110.734C307.209 111.851 308.162 112.866 309.182 113.622C310.227 114.495 311.364 115.226 312.683 115.673C314.286 116.302 316.138 116.389 317.864 115.892C318.447 115.765 318.889 115.547 319.447 115.304C319.888 115.085 320.355 114.984 320.797 114.766C322.446 113.919 323.852 112.514 324.857 110.951C325.862 109.388 326.441 107.552 326.527 105.699C326.34 101.462 323.124 96.7834 318.867 95.7525Z" fill="#ECF26F"/>
<path d="M293.106 124.569C291.605 118.784 286.399 115.637 280.604 116.529C278.595 116.843 276.469 117.183 274.434 117.38C271.816 117.704 269.527 119.546 268.065 121.819C267.623 122.037 267.324 122.346 266.933 122.798C265.228 124.513 264.091 126.593 264.014 129.054C263.912 131.398 264.845 134.007 266.444 135.737C268.493 137.859 270.989 138.661 273.658 138.57C273.943 138.753 274.343 138.91 274.602 138.976C279.554 140.956 285.172 139.247 288.364 135.376C289.663 134.605 290.795 133.626 291.709 132.205C293.013 130.333 293.78 127.111 293.106 124.569Z" fill="#ECF26F"/>
<path d="M339.353 140.557C338.019 137.791 335.919 135.436 333.22 133.7C328.958 130.96 323.174 129.649 318.272 130.714C314.303 131.576 311.081 133.62 308.711 136.212C306.016 138.998 304.107 142.59 303.919 146.786C303.913 147.887 303.908 148.988 304.02 150.064C304.161 152.967 305.053 155.95 306.738 158.64C311.917 167.293 323.119 173.292 332.888 167.626C342.657 161.961 345.735 149.682 339.353 140.557Z" fill="#ECF26F"/>
<path d="M358.687 106.904C358.469 106.462 358.251 106.021 358.033 105.579C355.857 100.063 348.119 98.1992 343.643 102.349C342.212 103.638 340.948 105.134 339.827 106.722C339.436 107.174 339.07 107.742 338.821 108.285C338.025 109.68 337.278 111.309 337.374 112.877C337.344 113.861 337.547 114.795 337.633 115.754C337.795 117.063 338.759 118.687 339.687 119.585C340.95 120.9 342.604 121.763 344.39 122.108C345.141 122.189 345.892 122.271 346.501 122.261C347.019 122.393 347.562 122.642 348.054 122.657C350.215 123.043 352.626 122.886 354.574 121.73C356.731 120.406 358.878 118.473 359.538 115.885C359.802 114.85 360.041 113.698 360.163 112.572C360.057 110.395 359.494 108.928 358.687 106.904Z" fill="#ECF26F"/>
<path d="M280.54 156.752C280.515 156.636 280.398 156.661 280.373 156.544L280.348 156.428C279.424 154.428 277.968 152.789 275.665 152.311C274.462 151.839 273.103 151.768 271.819 152.047C267.409 153.127 264.836 157.597 265.773 161.915C266.382 164.716 268.107 167.03 270.288 168.634C270.998 169.091 271.683 169.431 272.46 169.629C272.602 169.72 272.602 169.72 272.744 169.812C273.997 170.517 275.291 170.847 276.742 170.777C279.878 170.584 282.482 167.941 282.639 164.729C282.695 163.862 282.609 162.903 282.523 161.944C282.519 160.234 281.854 158.3 280.54 156.752Z" fill="#ECF26F"/>
<path d="M244.544 101.873C244.103 99.2798 242.663 97.1484 240.649 95.7526C239.695 94.7375 238.533 93.8899 236.955 93.3771C234.859 92.7323 231.957 92.8738 229.983 93.9136C229.45 94.2738 228.917 94.6339 228.501 94.9688C226.644 95.9832 225.263 97.5052 224.243 99.5601C223.537 100.813 223.207 102.107 223.161 103.584C223.131 104.568 223.217 105.527 223.42 106.461C223.597 107.278 223.891 108.069 224.302 108.836L224.327 108.952C225.21 111.327 226.326 113.652 228.69 114.971C230.653 116.134 232.84 116.636 235.134 116.505C240.305 116.115 244.431 112.042 244.741 106.719C244.823 105.968 244.787 105.242 244.66 104.659C244.742 103.908 244.681 103.065 244.504 102.248C244.62 102.223 244.57 101.99 244.544 101.873Z" fill="#ECF26F"/>
<path d="M244.933 139.676C244.766 139.467 244.74 139.351 244.573 139.143C242.666 137.113 239.292 135.646 236.566 136.604L236.45 136.629C234.516 137.294 232.958 137.999 231.72 139.612C230.365 141.251 229.943 142.687 229.649 144.706C229.288 146.984 230.338 149.567 231.586 151.374C233.001 153.389 234.64 154.744 236.903 155.597C240.368 156.922 244.037 156.37 247.219 154.701C249.751 153.417 251.512 150.835 251.63 147.999C251.493 143.995 248.789 140.549 244.933 139.676Z" fill="#ECF26F"/>
<path d="M367.865 65.3121C367.185 63.8709 366.206 62.7392 364.927 61.9169C363.832 60.8105 362.578 60.105 361.026 59.7089C359.564 59.1707 358.063 59.008 356.403 59.2462C354.81 59.2256 353.318 59.6718 351.902 60.4682C350.045 61.4827 348.614 62.7712 347.517 64.4759C346.38 66.5561 345.725 68.0428 345.532 70.5291C345.369 74.8421 347.448 78.7903 351.025 81.1911C352.329 82.1301 353.648 82.5768 355.15 82.7395C356.703 83.1356 358.18 83.1816 359.788 82.71C360.813 82.3651 361.722 82.0456 362.747 81.7008C364.188 81.0211 365.32 80.042 366.167 78.8802C366.883 78.2359 367.431 77.3836 367.812 76.3231C368.517 75.0699 368.939 73.634 368.959 72.0407C369.025 71.7819 369 71.6652 369.066 71.4065C369.335 69.2703 368.879 67.1695 367.865 65.3121Z" fill="#ECF26F"/>
<path d="M323.521 71.032C323.419 70.5652 323.226 70.2404 323.125 69.7736C322.882 69.2153 322.521 68.6825 322.187 68.2663C322.161 68.1496 322.111 67.9162 321.968 67.8248C321.096 66.0588 319.574 64.6784 317.803 63.8408C317.093 63.3839 316.433 63.1606 315.566 63.1046C314.789 62.9065 314.038 62.8252 313.221 63.0026C312.354 62.9466 311.537 63.1241 310.887 63.5096C309.72 63.7631 308.629 64.3667 307.731 65.2951C307.431 65.6046 307.132 65.914 306.832 66.2235C306.233 66.8424 305.66 67.5781 305.203 68.2884C304.472 69.4248 304.183 70.3432 303.893 71.2616C303.893 71.2616 303.893 71.2616 303.868 71.1449C303.893 71.2616 303.777 71.2869 303.802 71.4036C303.629 72.2967 303.457 73.1897 303.284 74.0827C303.121 75.5847 303.4 76.8685 303.938 78.2183C304.141 79.152 304.551 79.9183 305.196 80.6339C305.941 81.8163 306.87 82.7146 308.006 83.4456C309.711 84.5419 311.548 85.1207 313.659 85.2734C317.271 85.5887 320.869 83.5851 322.788 80.6018C323.793 79.0392 324.306 77.4612 324.392 75.6091C324.438 74.1326 324.226 72.5899 323.521 71.032Z" fill="#ECF26F"/>
<path d="M381.912 134.491C381.242 133.659 380.506 133.086 379.679 132.654C377.457 131.426 375.245 130.806 372.601 131.014C367.923 131.419 363.644 134.792 362.431 139.334C360.314 143.093 359.567 147.533 360.505 151.851C361.19 155.002 363.325 158.083 366.024 159.819C367.019 160.458 368.221 160.93 369.398 161.286C370.459 161.667 371.727 161.88 372.854 162.002C377.542 162.206 381.815 159.934 384.399 156.073C386.525 152.922 386.724 149.334 386.923 145.747C387.461 141.475 385.397 137.034 381.912 134.491Z" fill="#ECF26F"/>
<path d="M211.762 116.937C210.783 115.805 209.621 114.957 208.16 114.419C206.907 113.714 205.471 113.292 203.877 113.271C202.918 113.358 201.843 113.469 200.884 113.555C198.899 113.986 197.133 114.858 195.611 116.289C195.494 116.314 195.494 116.314 195.403 116.456C194.713 117.217 194.139 117.953 193.449 118.714C193.043 119.658 192.611 120.485 192.205 121.429C192.058 122.438 191.794 123.473 191.621 124.366C191.666 125.701 191.737 127.152 192.016 128.436C192.092 128.786 192.168 129.136 192.244 129.486C192.371 130.07 192.64 130.745 192.883 131.303C193.111 132.353 193.547 133.236 194.308 133.927C194.643 134.343 195.003 134.876 195.338 135.292C196.627 136.723 198.332 137.819 200.168 138.398C201.203 138.662 202.238 138.926 203.223 138.957L203.34 138.932C204.091 139.013 204.907 138.836 205.633 138.8C205.75 138.775 205.983 138.724 206.125 138.815C207.034 138.496 207.942 138.176 208.85 137.857C208.942 137.715 209.175 137.664 209.266 137.522C209.799 137.162 210.332 136.802 210.748 136.467C210.865 136.442 210.956 136.3 211.073 136.274C211.489 135.939 211.763 135.513 212.18 135.178C212.271 135.036 212.388 135.011 212.362 134.894C212.479 134.869 212.454 134.752 212.57 134.727C214.017 132.946 214.895 130.8 214.88 128.481C214.87 127.872 214.86 127.263 214.825 126.538C214.8 126.421 214.866 126.162 214.84 126.045C215.064 122.575 213.979 119.266 211.762 116.937Z" fill="#ECF26F"/>
<path d="M270.586 74.3401C268.851 71.417 266.584 68.8541 263.402 67.7118C262.717 67.3717 262.032 67.0315 261.373 66.8082C260.363 66.6608 259.328 66.3967 258.318 66.2494C257.243 66.3608 256.167 66.4722 255.066 66.4669C253.406 66.7051 251.965 67.3848 250.742 68.5059C249.742 68.9675 249.052 69.7285 248.504 70.5808C247.672 71.2505 247.123 72.1028 246.859 73.1379C246.311 73.9903 245.93 75.0507 245.9 76.0351C245.636 77.0702 245.514 78.1966 245.625 79.2724C245.361 80.3075 245.33 81.2918 245.559 82.3422C245.477 83.0932 245.629 83.7935 245.781 84.4938C246.152 85.6355 246.638 86.7519 247.009 87.8937C247.739 89.5683 248.86 90.7914 250.306 91.8218C251.092 92.6287 252.087 93.2683 253.147 93.6491C254.685 94.5374 256.379 95.0248 258.089 95.0201C260.525 94.9799 262.859 94.473 265.092 93.4992C266.767 92.7688 267.99 91.6477 269.02 90.2017C270.218 88.9639 271.132 87.5433 271.619 85.8486C272.868 82.033 272.539 77.7047 270.586 74.3401Z" fill="#ECF26F"/>
<path d="M401.609 90.1266C400.544 88.0358 398.803 86.2138 396.931 84.9094C394.039 82.8487 390.168 82.4674 386.758 83.0857C382.764 83.8309 379.151 86.3267 376.842 89.7614C375.563 91.7503 374.461 94.5561 374.359 96.9003C374.267 99.8535 375.033 102.254 376.199 104.811C377.366 107.369 380.501 109.988 383.231 110.739C384.241 110.887 385.276 111.151 386.286 111.298C388.021 111.41 389.564 111.197 391.121 110.492C392.146 110.148 393.121 109.569 394.095 108.991C395.821 108.494 397.587 107.622 398.901 106.358C399.408 105.882 399.891 105.288 400.373 104.694C400.464 104.552 400.581 104.527 400.556 104.41C400.855 104.101 401.012 103.7 401.312 103.39C401.22 103.533 401.104 103.558 401.129 103.675C402.433 101.802 403.286 99.5395 403.246 97.1039C403.298 94.5262 402.892 92.6588 401.609 90.1266Z" fill="#ECF26F"/>
<path d="M251.867 -18.2475C249.68 -18.7503 247.595 -18.7862 245.453 -17.9544C243.987 -17.3915 242.779 -16.7625 241.673 -15.6667C239.044 -13.1403 237.795 -9.32473 238.697 -5.73202C238.824 -5.14846 239.042 -4.70697 239.26 -4.26547C239.336 -3.91533 239.529 -3.59053 239.722 -3.26574C240.209 -2.14932 241.162 -1.1343 242.182 -0.378041C243.227 0.494926 244.364 1.22584 245.683 1.67262C247.286 2.30214 249.138 2.38877 250.864 1.89183C251.447 1.76509 251.889 1.54698 252.447 1.30353C252.888 1.08542 253.355 0.984029 253.797 0.765925C255.446 -0.0811421 256.852 -1.48642 257.857 -3.04908C258.862 -4.61174 259.441 -6.44848 259.527 -8.30055C259.34 -12.5375 256.124 -17.2166 251.867 -18.2475Z" fill="#ECF26F"/>
<path d="M226.106 10.5689C224.605 4.78407 219.399 1.63704 213.604 2.52896C211.595 2.84316 209.469 3.18272 207.434 3.38022C204.816 3.70445 202.527 5.54594 201.065 7.81889C200.623 8.037 200.324 8.34646 199.933 8.79799C198.228 10.5127 197.091 12.5929 197.014 15.0539C196.912 17.3982 197.845 20.0065 199.444 21.7371C201.493 23.8585 203.989 24.6607 206.658 24.5699C206.943 24.7527 207.343 24.91 207.602 24.9761C212.554 26.956 218.172 25.2471 221.364 21.3761C222.663 20.605 223.795 19.6259 224.709 18.2053C226.013 16.3332 226.78 13.1113 226.106 10.5689Z" fill="#ECF26F"/>
<path d="M272.353 26.5569C271.019 23.7912 268.919 21.4363 266.22 19.7004C261.958 16.9595 256.174 15.6492 251.272 16.7139C247.303 17.5757 244.081 19.62 241.711 22.2124C239.016 24.9976 237.107 28.5898 236.919 32.7861C236.913 33.8872 236.908 34.9883 237.02 36.0641C237.161 38.9665 238.053 41.9504 239.738 44.64C244.917 53.2925 256.119 59.2924 265.888 53.6265C275.657 47.9605 278.735 35.6816 272.353 26.5569Z" fill="#ECF26F"/>
<path d="M291.687 -7.09649C291.469 -7.53798 291.251 -7.97949 291.033 -8.42099C288.857 -13.9371 281.119 -15.8008 276.643 -11.651C275.212 -10.3624 273.948 -8.8658 272.827 -7.2778C272.436 -6.82627 272.07 -6.25802 271.821 -5.71513C271.025 -4.31988 270.278 -2.69121 270.374 -1.12326C270.344 -0.138872 270.547 0.79482 270.633 1.75386C270.795 3.06304 271.759 4.68697 272.687 5.58529C273.95 6.89975 275.604 7.76268 277.39 8.10808C278.141 8.18941 278.892 8.27076 279.501 8.26073C280.019 8.39276 280.562 8.64151 281.054 8.65683C283.215 9.04289 285.626 8.88605 287.574 7.72952C289.731 6.40558 291.878 4.47273 292.538 1.88501C292.802 0.849928 293.041 -0.30187 293.163 -1.42832C293.057 -3.60517 292.494 -5.07172 291.687 -7.09649Z" fill="#ECF26F"/>
<path d="M213.54 42.7523C213.515 42.6356 213.398 42.661 213.373 42.5442L213.348 42.4275C212.424 40.4281 210.968 38.7889 208.665 38.3114C207.462 37.8393 206.103 37.768 204.819 38.0468C200.409 39.1268 197.836 43.5966 198.773 47.915C199.382 50.716 201.107 53.0302 203.288 54.6341C203.998 55.0909 204.683 55.431 205.46 55.6291C205.602 55.7204 205.602 55.7204 205.744 55.8118C206.997 56.5173 208.291 56.8474 209.742 56.7767C212.878 56.5845 215.482 53.9413 215.639 50.7294C215.695 49.8617 215.609 48.9027 215.523 47.9436C215.519 46.2336 214.854 44.3002 213.54 42.7523Z" fill="#ECF26F"/>
<path d="M177.544 -12.1272C177.103 -14.7202 175.663 -16.8516 173.649 -18.2474C172.695 -19.2625 171.533 -20.1101 169.955 -20.6229C167.859 -21.2677 164.957 -21.1262 162.983 -20.0864C162.45 -19.7262 161.917 -19.3661 161.501 -19.0312C159.644 -18.0168 158.263 -16.4948 157.243 -14.4399C156.537 -13.1867 156.207 -11.8929 156.161 -10.4163C156.131 -9.43191 156.217 -8.47287 156.42 -7.53918C156.597 -6.7222 156.891 -5.93056 157.302 -5.16428L157.327 -5.04757C158.21 -2.67267 159.326 -0.348462 161.69 0.971296C163.653 2.13367 165.84 2.63645 168.134 2.50497C173.305 2.11527 177.431 -1.9585 177.741 -7.28128C177.823 -8.03224 177.787 -8.75786 177.66 -9.34142C177.742 -10.0924 177.681 -10.9347 177.504 -11.7517C177.62 -11.777 177.57 -12.0105 177.544 -12.1272Z" fill="#ECF26F"/>
<path d="M177.933 25.6756C177.766 25.4675 177.74 25.3508 177.573 25.1427C175.666 23.1126 172.292 21.6455 169.566 22.604L169.45 22.6294C167.516 23.2937 165.958 23.9987 164.72 25.6121C163.365 27.2508 162.943 28.6867 162.649 30.7062C162.288 32.9844 163.338 35.5674 164.586 37.3741C166.001 39.3888 167.64 40.7439 169.903 41.5968C173.368 42.9219 177.037 42.3695 180.219 40.7007C182.751 39.4174 184.512 36.835 184.63 33.9986C184.493 29.995 181.789 26.5491 177.933 25.6756Z" fill="#ECF26F"/>
<path d="M314.912 20.4915C314.242 19.6592 313.506 19.0857 312.679 18.6542C310.457 17.4258 308.245 16.8063 305.601 17.0138C300.923 17.4188 296.644 20.7924 295.431 25.3335C293.314 29.0931 292.567 33.5329 293.505 37.8512C294.19 41.0024 296.325 44.0829 299.024 45.8188C300.019 46.4583 301.221 46.9305 302.398 47.2859C303.459 47.6667 304.727 47.88 305.854 48.002C310.542 48.2059 314.815 45.9335 317.399 42.0726C319.525 38.9219 319.724 35.3345 319.923 31.747C320.461 27.4747 318.397 23.0343 314.912 20.4915Z" fill="#ECF26F"/>
<path d="M144.762 2.93662C143.783 1.80488 142.621 0.957255 141.16 0.419103C139.907 -0.286458 138.471 -0.707902 136.877 -0.728512C135.918 -0.642439 134.843 -0.531017 133.884 -0.444944C131.899 -0.0140268 130.133 0.858385 128.611 2.28901C128.494 2.31436 128.494 2.31436 128.403 2.45642C127.713 3.21741 127.139 3.95306 126.449 4.71406C126.043 5.65778 125.611 6.48479 125.205 7.42851C125.058 8.43825 124.794 9.47334 124.621 10.3664C124.666 11.7009 124.737 13.1521 125.016 14.4359C125.092 14.7861 125.168 15.1362 125.244 15.4864C125.371 16.0699 125.64 16.7448 125.883 17.303C126.111 18.3534 126.547 19.2364 127.308 19.9267C127.643 20.3428 128.003 20.8757 128.338 21.2918C129.627 22.723 131.332 23.8194 133.168 24.3982C134.203 24.6623 135.238 24.9263 136.223 24.957L136.34 24.9316C137.091 25.013 137.907 24.8355 138.633 24.8001C138.75 24.7748 138.983 24.7241 139.125 24.8155C140.034 24.496 140.942 24.1765 141.85 23.857C141.942 23.7149 142.175 23.6642 142.266 23.5222C142.799 23.162 143.332 22.8018 143.748 22.467C143.865 22.4417 143.956 22.2996 144.073 22.2743C144.489 21.9394 144.763 21.5133 145.18 21.1785C145.271 21.0364 145.388 21.011 145.362 20.8943C145.479 20.869 145.454 20.7523 145.57 20.7269C147.017 18.9462 147.895 16.8 147.88 14.481C147.87 13.8721 147.86 13.2632 147.825 12.5376C147.8 12.4209 147.866 12.1621 147.84 12.0454C148.064 8.5747 146.979 5.26611 144.762 2.93662Z" fill="#ECF26F"/>
<path d="M4.10554 1.56895C2.60471 -4.21593 -2.60079 -7.36296 -8.3957 -6.47104C-10.4051 -6.15684 -12.5313 -5.81728 -14.5661 -5.61978C-17.1845 -5.29555 -19.4733 -3.45406 -20.9351 -1.18111C-21.3766 -0.963005 -21.6761 -0.653538 -22.0669 -0.202011C-23.7721 1.51273 -24.9092 3.59293 -24.9857 6.0539C-25.0877 8.39817 -24.1545 11.0065 -22.5565 12.7371C-20.5069 14.8585 -18.0106 15.6607 -15.3415 15.5699C-15.0574 15.7527 -14.6566 15.91 -14.3978 15.9761C-9.44581 17.956 -3.82831 16.2471 -0.635876 12.3761C0.663272 11.605 1.795 10.6259 2.70863 9.20535C4.01307 7.33323 4.77991 4.11126 4.10554 1.56895Z" fill="#ECF26F"/>
<path d="M50.353 17.5569C49.0191 14.7912 46.9188 12.4363 44.2197 10.7004C39.9579 7.95952 34.1735 6.64925 29.2717 7.71387C25.3035 8.5757 22.081 10.62 19.7108 13.2124C17.0158 15.9976 15.1073 19.5898 14.9187 23.7861C14.9134 24.8872 14.9081 25.9883 15.0195 27.0641C15.161 29.9665 16.0535 32.9504 17.7376 35.64C22.9166 44.2925 34.1193 50.2924 43.8883 44.6265C53.6572 38.9605 56.7346 26.6816 50.353 17.5569Z" fill="#ECF26F"/>
<path d="M69.6873 -16.0965C69.4692 -16.538 69.2511 -16.9795 69.033 -17.421C66.8572 -22.9371 59.1194 -24.8008 54.6432 -20.651C53.212 -19.3624 51.9482 -17.8658 50.8265 -16.2778C50.4357 -15.8263 50.0702 -15.258 49.8215 -14.7151C49.0246 -13.3199 48.2783 -11.6912 48.3744 -10.1233C48.3438 -9.13887 48.5466 -8.20518 48.6327 -7.24614C48.7948 -5.93696 49.7586 -4.31303 50.687 -3.41471C51.9502 -2.10025 53.6042 -1.23732 55.3903 -0.891924C56.1413 -0.81059 56.8922 -0.729243 57.5011 -0.739272C58.0186 -0.607241 58.5615 -0.358494 59.0537 -0.343175C61.2153 0.0428887 63.6255 -0.113946 65.5742 -1.27048C67.731 -2.59442 69.8779 -4.52727 70.538 -7.11499C70.8021 -8.15007 71.0408 -9.30187 71.1628 -10.4283C71.0566 -12.6052 70.4937 -14.0717 69.6873 -16.0965Z" fill="#ECF26F"/>
<path d="M92.9116 11.4915C92.2419 10.6592 91.5063 10.0857 90.6793 9.65418C88.457 8.42579 86.2448 7.8063 83.6011 8.01383C78.9226 8.41884 74.6443 11.7924 73.4307 16.3335C71.314 20.0931 70.5672 24.5329 71.5051 28.8512C72.1895 32.0024 74.3252 35.0829 77.0243 36.8188C78.0187 37.4583 79.2212 37.9305 80.3984 38.2859C81.4588 38.6667 82.7273 38.88 83.8537 39.002C88.5422 39.2059 92.8152 36.9335 95.3987 33.0726C97.5254 29.9219 97.724 26.3345 97.9226 22.747C98.4613 18.4747 96.397 14.0343 92.9116 11.4915Z" fill="#ECF26F"/>
<path d="M193.413 202.992C195.732 208.5 201.337 210.864 206.943 209.146C208.886 208.545 210.941 207.902 212.926 207.414C215.471 206.715 217.47 204.563 218.589 202.103C218.994 201.824 219.246 201.474 219.568 200.971C221.008 199.028 221.833 196.806 221.554 194.36C221.317 192.025 220.018 189.579 218.187 188.097C215.853 186.293 213.267 185.859 210.639 186.333C210.331 186.194 209.912 186.096 209.646 186.068C204.461 184.822 199.148 187.323 196.547 191.614C195.373 192.564 194.394 193.696 193.695 195.234C192.674 197.274 192.38 200.573 193.413 202.992Z" fill="#ECF26F"/>
<path d="M145.344 193.838C147.063 196.383 149.481 198.41 152.402 199.739C157.014 201.837 162.927 202.3 167.624 200.539C171.427 199.114 174.321 196.627 176.292 193.72C178.558 190.575 179.929 186.746 179.51 182.566C179.357 181.475 179.203 180.385 178.938 179.337C178.379 176.485 177.066 173.661 175.012 171.242C168.639 163.427 156.689 159.104 147.839 166.12C138.989 173.135 137.714 185.729 145.344 193.838Z" fill="#ECF26F"/>
<path d="M201.208 169.333C201.25 169.445 201.361 169.403 201.403 169.515L201.445 169.627C202.647 171.472 204.324 172.885 206.672 173.025C207.93 173.319 209.286 173.193 210.517 172.732C214.725 171.028 216.627 166.234 215.076 162.096C214.07 159.412 212.03 157.37 209.64 156.098C208.871 155.748 208.144 155.51 207.348 155.426C207.194 155.356 207.194 155.356 207.04 155.286C205.698 154.769 204.37 154.629 202.944 154.908C199.869 155.55 197.674 158.541 197.981 161.742C198.05 162.609 198.274 163.546 198.497 164.482C198.748 166.174 199.684 167.991 201.208 169.333Z" fill="#ECF26F"/>
<path d="M244.739 218.45C245.549 220.952 247.282 222.854 249.476 223.945C250.567 224.812 251.838 225.483 253.474 225.763C255.64 226.099 258.492 225.54 260.296 224.227C260.771 223.794 261.247 223.36 261.61 222.969C263.302 221.697 264.448 219.992 265.162 217.812C265.679 216.47 265.819 215.142 265.652 213.674C265.54 212.696 265.317 211.759 264.982 210.864C264.688 210.082 264.283 209.341 263.766 208.642L263.724 208.53C262.509 206.307 261.069 204.168 258.539 203.203C256.429 202.336 254.192 202.153 251.942 202.614C246.881 203.745 243.385 208.371 243.846 213.683C243.873 214.438 244.013 215.151 244.222 215.71C244.25 216.465 244.432 217.29 244.725 218.073C244.613 218.114 244.697 218.338 244.739 218.45Z" fill="#ECF26F"/>
<path d="M238.906 181.098C239.101 181.28 239.143 181.392 239.339 181.574C241.519 183.308 245.069 184.273 247.628 182.932L247.74 182.89C249.557 181.954 250.997 181.031 251.99 179.256C253.095 177.439 253.305 175.958 253.305 173.917C253.334 171.61 251.923 169.206 250.427 167.598C248.736 165.808 246.919 164.703 244.557 164.186C240.937 163.374 237.386 164.45 234.478 166.56C232.157 168.195 230.787 171.004 231.079 173.828C231.791 177.77 234.964 180.79 238.906 181.098Z" fill="#ECF26F"/>
<path d="M104.105 205.976C104.888 206.703 105.698 207.164 106.579 207.472C108.955 208.367 111.233 208.661 113.82 208.075C118.391 207 122.138 203.045 122.684 198.376C124.237 194.351 124.336 189.849 122.785 185.711C121.654 182.692 119.096 179.951 116.175 178.623C115.099 178.133 113.841 177.839 112.625 177.657C111.52 177.434 110.234 177.405 109.102 177.447C104.433 177.921 100.533 180.786 98.5327 184.979C96.8824 188.403 97.203 191.982 97.5237 195.56C97.6065 199.866 100.289 203.962 104.105 205.976Z" fill="#ECF26F"/>
<path d="M275.007 198.818C276.139 199.797 277.411 200.468 278.934 200.79C280.276 201.307 281.758 201.517 283.337 201.308C284.274 201.085 285.322 200.819 286.259 200.596C288.16 199.883 289.782 198.766 291.082 197.13C291.194 197.088 291.194 197.088 291.264 196.935C291.838 196.082 292.299 195.272 292.872 194.419C293.138 193.427 293.446 192.546 293.712 191.554C293.712 190.533 293.824 189.471 293.866 188.562C293.629 187.248 293.35 185.822 292.889 184.592C292.763 184.257 292.637 183.921 292.512 183.586C292.302 183.026 291.939 182.397 291.617 181.88C291.24 180.873 290.681 180.063 289.829 179.489C289.437 179.126 289.004 178.65 288.613 178.287C287.131 177.056 285.286 176.217 283.385 175.909C282.323 175.797 281.261 175.685 280.282 175.797L280.17 175.839C279.415 175.866 278.633 176.16 277.92 176.299C277.808 176.341 277.584 176.425 277.43 176.355C276.578 176.802 275.725 177.249 274.872 177.696C274.802 177.85 274.578 177.934 274.508 178.088C274.033 178.521 273.558 178.954 273.194 179.345C273.082 179.387 273.012 179.541 272.901 179.583C272.537 179.974 272.327 180.436 271.964 180.827C271.894 180.981 271.782 181.023 271.824 181.134C271.712 181.176 271.754 181.288 271.642 181.33C270.467 183.301 269.908 185.551 270.257 187.844C270.354 188.445 270.452 189.046 270.592 189.759C270.634 189.871 270.606 190.136 270.648 190.248C270.926 193.715 272.477 196.832 275.007 198.818Z" fill="#ECF26F"/>
<path d="M101.546 129.6C103 131.096 104.621 132.019 106.816 132.09C109.122 132.118 111.359 131.28 112.729 129.491C113.596 128.401 114.337 126.975 114.589 125.605C116.463 122.097 115.877 117.47 112.495 114.911C111.642 114.338 110.79 113.765 109.797 113.499C109.252 113.065 108.525 112.828 107.952 112.66C107.533 112.562 107.156 112.576 106.778 112.59C105.255 112.268 103.479 112.295 101.956 112.994C98.3068 114.489 95.9713 118.807 96.5295 122.68C97.0181 125.685 98.8906 128.299 101.546 129.6Z" fill="#ECF26F"/>
<path d="M71.2406 127.692C73.4771 127.874 75.546 127.609 77.5452 126.477C78.9152 125.709 80.0197 124.912 80.9566 123.668C83.1938 120.789 83.8797 116.834 82.4687 113.409C82.2592 112.849 81.9797 112.444 81.7002 112.039C81.5745 111.703 81.337 111.409 81.0994 111.116C80.4566 110.081 79.3665 109.214 78.2484 108.613C77.0883 107.9 75.8583 107.34 74.4885 107.088C72.8112 106.697 70.966 106.878 69.3303 107.618C68.7711 107.828 68.3656 108.107 67.8484 108.429C67.4429 108.708 66.9955 108.876 66.5901 109.155C65.0802 110.231 63.8916 111.825 63.1224 113.516C62.3532 115.207 62.0452 117.108 62.2265 118.953C63.0223 123.119 66.8794 127.286 71.2406 127.692Z" fill="#ECF26F"/>
<path d="M92.5804 95.4626C94.8995 100.971 100.504 103.334 106.11 101.616C108.053 101.016 110.108 100.373 112.093 99.8844C114.638 99.1861 116.637 97.0339 117.756 94.5739C118.161 94.2944 118.413 93.945 118.735 93.4419C120.175 91.4992 121 89.2768 120.721 86.8305C120.484 84.496 119.185 82.0495 117.354 80.5673C115.02 78.7636 112.434 78.3296 109.806 78.8042C109.498 78.6644 109.079 78.5664 108.813 78.5384C103.628 77.2931 98.3153 79.794 95.7142 84.0848C94.5398 85.035 93.5611 86.1671 92.8618 87.7045C91.8409 89.7452 91.5465 93.044 92.5804 95.4626Z" fill="#ECF26F"/>
<path d="M44.5101 86.3088C46.2288 88.8533 48.6466 90.8808 51.5678 92.2094C56.1802 94.3073 62.093 94.77 66.7902 93.0098C70.5927 91.5849 73.4868 89.0974 75.4585 86.1904C77.7238 83.0457 79.0946 79.216 78.6762 75.0363C78.5227 73.9459 78.3692 72.8556 78.1039 71.8071C77.5454 68.9554 76.2321 66.1314 74.1779 63.7126C67.8055 55.8971 55.8548 51.5749 47.0048 58.59C38.1547 65.6051 36.8797 78.1995 44.5101 86.3088Z" fill="#ECF26F"/>
<path d="M30.229 122.398C30.5085 122.804 30.788 123.209 31.0675 123.615C34.0157 128.759 41.9414 129.488 45.7726 124.736C47.0031 123.255 48.0378 121.592 48.9189 119.859C49.2405 119.355 49.5203 118.74 49.6882 118.167C50.2756 116.672 50.7792 114.953 50.4581 113.415C50.3465 112.436 50.0112 111.542 49.7878 110.605C49.4386 109.333 48.2508 107.865 47.2026 107.11C45.7631 105.991 44.0019 105.376 42.1847 105.291C41.4299 105.319 40.6751 105.347 40.074 105.445C39.5428 105.389 38.9697 105.221 38.4804 105.276C36.2858 105.206 33.9233 105.709 32.1617 107.134C30.2183 108.755 28.3726 110.977 28.0924 113.633C27.9803 114.696 27.9101 115.87 27.9518 117.002C28.3707 119.141 29.1392 120.511 30.229 122.398Z" fill="#ECF26F"/>
<path d="M100.374 61.8038C100.416 61.9156 100.527 61.8737 100.569 61.9855L100.611 62.0974C101.813 63.9428 103.49 65.355 105.838 65.4954C107.096 65.7892 108.452 65.6637 109.683 65.2027C113.891 63.4984 115.793 58.7042 114.242 54.5662C113.236 51.8821 111.196 49.8407 108.806 48.5681C108.037 48.2185 107.31 47.9806 106.514 47.8966C106.36 47.8267 106.36 47.8266 106.206 47.7567C104.864 47.2392 103.536 47.0991 102.111 47.3783C99.0351 48.0206 96.8398 51.0115 97.1465 54.2126C97.2162 55.0793 97.4396 56.016 97.663 56.9526C97.9143 58.644 98.8504 60.4615 100.374 61.8038Z" fill="#ECF26F"/>
<path d="M143.905 110.921C144.715 113.423 146.448 115.325 148.642 116.416C149.733 117.282 151.004 117.954 152.64 118.234C154.806 118.57 157.658 118.011 159.462 116.698C159.937 116.264 160.413 115.831 160.776 115.44C162.468 114.168 163.614 112.463 164.328 110.283C164.845 108.941 164.985 107.613 164.818 106.145C164.706 105.167 164.483 104.23 164.148 103.335C163.854 102.552 163.449 101.811 162.932 101.112L162.89 101.001C161.675 98.7777 160.235 96.6387 157.705 95.6736C155.595 94.8064 153.358 94.6241 151.108 95.0849C146.047 96.216 142.552 100.842 143.012 106.154C143.039 106.909 143.179 107.622 143.388 108.181C143.416 108.936 143.598 109.761 143.891 110.543C143.779 110.585 143.863 110.809 143.905 110.921Z" fill="#ECF26F"/>
<path d="M138.071 73.5688C138.266 73.7506 138.308 73.8624 138.504 74.0442C140.684 75.778 144.234 76.7434 146.793 75.4021L146.905 75.3602C148.722 74.424 150.162 73.5018 151.155 71.7268C152.26 69.9098 152.47 68.4281 152.47 66.3873C152.499 64.0808 151.088 61.6762 149.592 60.0683C147.901 58.2786 146.084 57.1739 143.722 56.6561C140.102 55.8445 136.551 56.92 133.643 59.0301C131.322 60.665 129.952 63.4744 130.244 66.2981C130.956 70.2402 134.129 73.2603 138.071 73.5688Z" fill="#ECF26F"/>
<path d="M27.1439 164.878C28.0242 166.206 29.1562 167.185 30.5399 167.815C31.7838 168.751 33.1257 169.269 34.7192 169.437C36.2428 169.759 37.7524 169.703 39.3601 169.228C40.9397 169.019 42.3517 168.362 43.6379 167.37C45.3296 166.099 46.5601 164.617 47.3992 162.772C48.2245 160.55 48.6582 158.984 48.4911 156.496C48.0308 152.205 45.4037 148.598 41.5181 146.737C40.0925 145.996 38.7226 145.744 37.2129 145.8C35.6194 145.632 34.1517 145.799 32.6278 146.498C31.6632 146.987 30.8104 147.434 29.8458 147.923C28.5176 148.803 27.5388 149.935 26.8675 151.207C26.2523 151.948 25.8327 152.87 25.6088 153.975C25.0913 155.316 24.8813 156.798 25.0906 158.378C25.0625 158.643 25.1045 158.755 25.0765 159.021C25.1179 161.173 25.8722 163.187 27.1439 164.878Z" fill="#ECF26F"/>
<path d="M70.2011 152.825C70.3687 153.272 70.6064 153.566 70.774 154.013C71.0954 154.531 71.5286 155.006 71.9199 155.37C71.9618 155.481 72.0456 155.705 72.1994 155.775C73.3172 157.397 75.0224 158.543 76.8954 159.117C77.6641 159.467 78.349 159.593 79.2157 159.523C80.0125 159.607 80.7673 159.579 81.5501 159.286C82.4168 159.216 83.1997 158.923 83.7869 158.448C84.9053 158.029 85.898 157.274 86.653 156.226C86.9047 155.876 87.1565 155.527 87.4082 155.177C87.9116 154.479 88.373 153.668 88.7226 152.899C89.2821 151.669 89.4361 150.719 89.5901 149.768C89.5901 149.768 89.5901 149.768 89.632 149.88C89.5901 149.768 89.7019 149.726 89.66 149.615C89.7021 148.706 89.7443 147.797 89.7865 146.889C89.7309 145.379 89.2699 144.149 88.5433 142.891C88.2081 141.996 87.691 141.297 86.9503 140.682C86.0419 139.619 84.9937 138.864 83.7637 138.305C81.9188 137.465 80.0178 137.157 77.907 137.311C74.2865 137.52 71.015 140.021 69.5464 143.25C68.7772 144.941 68.4973 146.576 68.6785 148.421C68.8459 149.889 69.2789 151.385 70.2011 152.825Z" fill="#ECF26F"/>
<path d="M3.2701 98.4464C4.05272 99.1735 4.86337 99.635 5.74394 99.9427C8.12008 100.838 10.3985 101.132 12.9847 100.545C17.5559 99.4702 21.3031 95.5152 21.8494 90.8465C23.402 86.821 23.5009 82.32 21.9503 78.182C20.8187 75.1623 18.2613 72.422 15.3401 71.0933C14.2638 70.6038 13.0058 70.31 11.7897 70.1279C10.6855 69.904 9.39953 69.8757 8.26726 69.9174C3.59832 70.3916 -0.302365 73.2562 -2.30229 77.4493C-3.95257 80.8737 -3.63194 84.4523 -3.31128 88.0308C-3.22844 92.3362 -0.54556 96.4326 3.2701 98.4464Z" fill="#ECF26F"/>
<path d="M174.173 91.2888C175.305 92.2675 176.577 92.9388 178.1 93.2607C179.442 93.7782 180.924 93.9882 182.503 93.7789C183.44 93.5555 184.488 93.2901 185.425 93.0667C187.326 92.3543 188.948 91.2364 190.249 89.6012C190.36 89.5593 190.36 89.5593 190.43 89.4055C191.004 88.553 191.465 87.7423 192.038 86.8898C192.304 85.8974 192.612 85.0168 192.878 84.0244C192.878 83.004 192.99 81.9416 193.032 81.033C192.795 79.719 192.516 78.2931 192.055 77.0629C191.929 76.7274 191.803 76.3919 191.678 76.0563C191.468 75.4972 191.105 74.868 190.783 74.3507C190.406 73.3442 189.847 72.5333 188.995 71.96C188.603 71.5965 188.17 71.1211 187.779 70.7576C186.297 69.5271 184.452 68.6879 182.551 68.38C181.489 68.2679 180.427 68.1558 179.448 68.2674L179.336 68.3093C178.581 68.3371 177.799 68.6304 177.086 68.7701C176.974 68.812 176.75 68.8958 176.596 68.8259C175.744 69.273 174.891 69.7201 174.038 70.1672C173.968 70.3209 173.744 70.4048 173.675 70.5585C173.199 70.9917 172.724 71.4249 172.36 71.8163C172.248 71.8582 172.178 72.0119 172.067 72.0538C171.703 72.4451 171.493 72.9064 171.13 73.2977C171.06 73.4514 170.948 73.4934 170.99 73.6052C170.878 73.6471 170.92 73.7589 170.808 73.8008C169.633 75.7715 169.074 78.0219 169.423 80.3145C169.52 80.9156 169.618 81.5167 169.758 82.2296C169.8 82.3415 169.772 82.6071 169.814 82.7189C170.092 86.1856 171.643 89.3032 174.173 91.2888Z" fill="#ECF26F"/>
<path d="M122.106 141.92C124.244 144.563 126.857 146.772 130.17 147.444C130.897 147.681 131.624 147.919 132.309 148.045C133.329 148.045 134.391 148.158 135.412 148.158C136.46 147.892 137.509 147.627 138.599 147.474C140.207 146.999 141.535 146.118 142.584 144.833C143.506 144.232 144.08 143.379 144.499 142.457C145.226 141.674 145.646 140.752 145.758 139.689C146.178 138.767 146.402 137.663 146.29 136.684C146.402 135.622 146.36 134.489 146.095 133.441C146.207 132.379 146.095 131.4 145.718 130.394C145.691 129.639 145.439 128.968 145.188 128.297C144.657 127.22 144.014 126.186 143.483 125.109C142.519 123.557 141.233 122.509 139.654 121.697C138.759 121.012 137.683 120.523 136.579 120.299C134.929 119.641 133.182 119.403 131.491 119.655C129.086 120.045 126.85 120.884 124.78 122.169C123.229 123.133 122.18 124.419 121.369 125.999C120.362 127.396 119.663 128.934 119.425 130.681C118.739 134.637 119.688 138.872 122.106 141.92Z" fill="#ECF26F"/>
<path d="M-9.8247 145.188C-8.46923 147.103 -6.48462 148.655 -4.444 149.676C-1.28524 151.298 2.60083 151.117 5.88604 150.014C9.73045 148.701 12.9462 145.71 14.7363 141.978C15.7153 139.826 16.401 136.891 16.1639 134.556C15.8291 131.621 14.7254 129.356 13.2023 126.993C11.6792 124.63 8.19902 122.491 5.38942 122.141C4.36899 122.14 3.30669 122.028 2.28626 122.028C0.552886 122.167 -0.942959 122.6 -2.38296 123.523C-3.3476 124.012 -4.22843 124.724 -5.10925 125.437C-6.74491 126.178 -8.36664 127.295 -9.48526 128.735C-9.91873 129.28 -10.3103 129.937 -10.7018 130.594C-10.7718 130.748 -10.8836 130.789 -10.8417 130.901C-11.0934 131.251 -11.1913 131.67 -11.443 132.019C-11.3731 131.866 -11.2613 131.824 -11.3032 131.712C-12.3241 133.753 -12.8419 136.115 -12.451 138.519C-12.1301 141.077 -11.4596 142.867 -9.8247 145.188Z" fill="#ECF26F"/>
</g>
<defs>
<clipPath id="clip0_660_2652">
<rect width="897" height="201" rx="18" fill="white"/>
</clipPath>
</defs>
</svg>
